<mxfile host="app.diagrams.net" modified="2023-06-13T18:43:20.258Z" agent="Mozilla/5.0 (Windows NT 10.0; Win64; x64) AppleWebKit/537.36 (KHTML, like Gecko) Chrome/113.0.0.0 Safari/537.36 OPR/99.0.0.0" etag="Y77Bk7aluIut9PhiMDdJ" version="21.3.8" type="github">
  <diagram name="1 oldal" id="6Dwz5n17KwhEYUH6p1Jn">
    <mxGraphModel dx="431" dy="746" grid="1" gridSize="10" guides="1" tooltips="1" connect="1" arrows="1" fold="1" page="1" pageScale="1" pageWidth="827" pageHeight="1169" math="0" shadow="0">
      <root>
        <mxCell id="0" />
        <mxCell id="1" parent="0" />
        <mxCell id="ZB3OOChy158gSVUYVVuj-6" value="s_axi_awvalid = 1" style="edgeStyle=orthogonalEdgeStyle;rounded=0;orthogonalLoop=1;jettySize=auto;html=1;exitX=0.5;exitY=1;exitDx=0;exitDy=0;entryX=0.5;entryY=0;entryDx=0;entryDy=0;" edge="1" parent="1" source="ZB3OOChy158gSVUYVVuj-1" target="ZB3OOChy158gSVUYVVuj-4">
          <mxGeometry relative="1" as="geometry" />
        </mxCell>
        <mxCell id="ZB3OOChy158gSVUYVVuj-1" value="&lt;font style=&quot;font-size: 20px;&quot;&gt;WR_ADDR_WAIT&lt;/font&gt;" style="rounded=1;whiteSpace=wrap;html=1;" vertex="1" parent="1">
          <mxGeometry x="320" y="40" width="200" height="90" as="geometry" />
        </mxCell>
        <mxCell id="ZB3OOChy158gSVUYVVuj-9" style="edgeStyle=orthogonalEdgeStyle;rounded=0;orthogonalLoop=1;jettySize=auto;html=1;entryX=0;entryY=0.5;entryDx=0;entryDy=0;" edge="1" parent="1" source="ZB3OOChy158gSVUYVVuj-2" target="ZB3OOChy158gSVUYVVuj-1">
          <mxGeometry relative="1" as="geometry">
            <Array as="points">
              <mxPoint x="260" y="565" />
              <mxPoint x="260" y="85" />
            </Array>
          </mxGeometry>
        </mxCell>
        <mxCell id="ZB3OOChy158gSVUYVVuj-10" value="s_axi_bready = 1" style="edgeLabel;html=1;align=center;verticalAlign=middle;resizable=0;points=[];" vertex="1" connectable="0" parent="ZB3OOChy158gSVUYVVuj-9">
          <mxGeometry x="-0.0967" y="3" relative="1" as="geometry">
            <mxPoint x="3" y="-34" as="offset" />
          </mxGeometry>
        </mxCell>
        <mxCell id="ZB3OOChy158gSVUYVVuj-2" value="&lt;font style=&quot;font-size: 20px;&quot;&gt;WR_RESPONSE&lt;/font&gt;" style="rounded=1;whiteSpace=wrap;html=1;" vertex="1" parent="1">
          <mxGeometry x="320" y="520" width="200" height="90" as="geometry" />
        </mxCell>
        <mxCell id="ZB3OOChy158gSVUYVVuj-8" value="axi_write_ack = 1" style="edgeStyle=orthogonalEdgeStyle;rounded=0;orthogonalLoop=1;jettySize=auto;html=1;exitX=0.5;exitY=1;exitDx=0;exitDy=0;entryX=0.5;entryY=0;entryDx=0;entryDy=0;" edge="1" parent="1" source="ZB3OOChy158gSVUYVVuj-3" target="ZB3OOChy158gSVUYVVuj-2">
          <mxGeometry relative="1" as="geometry" />
        </mxCell>
        <mxCell id="ZB3OOChy158gSVUYVVuj-3" value="&lt;font style=&quot;font-size: 20px;&quot;&gt;WR_EXECUTE&lt;/font&gt;" style="rounded=1;whiteSpace=wrap;html=1;" vertex="1" parent="1">
          <mxGeometry x="320" y="360" width="200" height="90" as="geometry" />
        </mxCell>
        <mxCell id="ZB3OOChy158gSVUYVVuj-7" value="s_axi_wstrb == 4&#39;b1111 &lt;b&gt;&lt;i&gt;&lt;u&gt;vagy &lt;/u&gt;&lt;/i&gt;&lt;/b&gt;&lt;br&gt;fir_addr_from_axi[1:0] == 2&#39;b00" style="edgeStyle=orthogonalEdgeStyle;rounded=0;orthogonalLoop=1;jettySize=auto;html=1;exitX=0.5;exitY=1;exitDx=0;exitDy=0;entryX=0.5;entryY=0;entryDx=0;entryDy=0;" edge="1" parent="1" source="ZB3OOChy158gSVUYVVuj-4" target="ZB3OOChy158gSVUYVVuj-3">
          <mxGeometry relative="1" as="geometry">
            <Array as="points">
              <mxPoint x="420" y="320" />
              <mxPoint x="420" y="320" />
            </Array>
            <mxPoint as="offset" />
          </mxGeometry>
        </mxCell>
        <mxCell id="ZB3OOChy158gSVUYVVuj-4" value="&lt;font style=&quot;font-size: 20px;&quot;&gt;WR_DATA_WAIT&lt;/font&gt;" style="rounded=1;whiteSpace=wrap;html=1;" vertex="1" parent="1">
          <mxGeometry x="320" y="200" width="200" height="90" as="geometry" />
        </mxCell>
      </root>
    </mxGraphModel>
  </diagram>
</mxfile>
